<?xml version="1.0" encoding="UTF-8" standalone="no"?>
<!DOCTYPE svg PUBLIC "-//W3C//DTD SVG 1.1//EN" "http://www.w3.org/Graphics/SVG/1.1/DTD/svg11.dtd">
<svg width="100%" height="100%" viewBox="0 0 5424 2010" version="1.1" xmlns="http://www.w3.org/2000/svg" xmlns:xlink="http://www.w3.org/1999/xlink" xml:space="preserve" style="fill-rule:evenodd;clip-rule:evenodd;stroke-linejoin:round;stroke-miterlimit:1.41421;">
    <g id="Artboard1" transform="matrix(1,0,0,0.982609,-2779.29,-3459.69)">
        <rect x="2779.29" y="3520.92" width="5423.64" height="2044.98" style="fill:none;"/>
        <g id="__150463120" transform="matrix(1,0,0,1.0177,0,118.654)">
            <path d="M6998,3896L7000,3910L7011,3932C7011,3932 7016,3937 7016,3938C7016,3938 7034,3951 7035,3951C7036,3951 7069,3969 7070,3969L7295,4039C7296,4039 7327,4044 7327,4044C7328,4044 7351,4044 7351,4044L7379,4037L7416,4013C7416,4013 7438,3988 7439,3987C7439,3987 7457,3955 7458,3954L7464,3931L7464,3920L7457,3901C7457,3901 7446,3891 7446,3890C7446,3890 7418,3874 7417,3874C7416,3873 7249,3801 7249,3800L7229,3781C7228,3780 7219,3768 7218,3768C7218,3768 7214,3766 7213,3766L7134,3766L7029,3847L7002,3881L6997,3895L6998,3896ZM7126,3731L7126,3750L7217,3750L7217,3731L7126,3731ZM7126,3699L7126,3714L7340,3718C7341,3718 7344,3720 7345,3720C7345,3720 7349,3724 7349,3725L7349,3727L7345,3731C7345,3731 7336,3733 7331,3734L7287,3734L7287,3751L7338,3753C7340,3754 7344,3755 7345,3756L7349,3760L7345,3765C7345,3765 7342,3766 7340,3767L7289,3767L7289,3786L7336,3786C7340,3787 7348,3789 7348,3790L7352,3795L7348,3801L7338,3804L7294,3804C7294,3804 7410,3852 7411,3853C7411,3853 7462,3881 7463,3881L7475,3892L7481,3905L7484,3924C7484,3924 7469,3978 7468,3978C7468,3978 7442,4019 7441,4020C7441,4020 7424,4037 7423,4037C7423,4037 7399,4053 7398,4053C7398,4053 7382,4058 7382,4059C7381,4059 7354,4064 7353,4064C7352,4064 7330,4064 7330,4064C7329,4064 7288,4058 7287,4057C7286,4057 7061,3990 7060,3989C7060,3989 7011,3965 7010,3964C7008,3963 6985,3947 6985,3947C6985,3947 6985,3961 6985,3962L6988,3971C6988,3971 7028,4011 7028,4012L7071,4042C7071,4042 7096,4054 7097,4054C7098,4054 7177,4081 7177,4081L7172,4100L7176,4104C7180,4105 7192,4108 7192,4108L7197,4111L7200,4116L7196,4122L7148,4131C7148,4131 7169,4140 7169,4141L7175,4147L7175,4152L7173,4154L7128,4163L7123,4167C7123,4167 7142,4173 7143,4173C7143,4173 7150,4176 7150,4177L7158,4187C7158,4187 7152,4193 7151,4193L7125,4193L7093,4201C7093,4201 7119,4209 7120,4209L7126,4214L7128,4217L7128,4222L7126,4224L7066,4234L7086,4243L7092,4249L7092,4254L7036,4266C7036,4266 7042,4273 7043,4274C7043,4274 7046,4279 7047,4279L7047,4285L7043,4287C7042,4287 7006,4295 7006,4295L7003,4299L7006,4319L7002,4323C7001,4323 6933,4357 6933,4357L6927,4373C6927,4373 6869,4386 6868,4386C6868,4386 6857,4391 6857,4392L6843,4403L6831,4420C6831,4420 6825,4440 6825,4441C6825,4441 6816,4458 6816,4459C6816,4460 6805,4475 6805,4475C6805,4475 6764,4512 6764,4513C6764,4513 6762,4516 6762,4517C6762,4517 6757,4546 6757,4547L6757,4559L6760,4565C6760,4565 6765,4569 6765,4570L6777,4573L6787,4570C6787,4570 6796,4562 6796,4561C6796,4561 6809,4540 6810,4539C6811,4538 6814,4534 6816,4532L6984,4446L7013,4461C7013,4461 7043,4446 7044,4446C7044,4446 7163,4394 7183,4385C7183,4385 7249,4341 7250,4341C7251,4340 7420,4181 7420,4181L7589,4234L7633,4458C7639,4460 7651,4465 7651,4466L7658,4487C7658,4488 7648,4527 7648,4527L7654,4540C7654,4540 7660,4547 7660,4548L7667,4551L7746,4545C7746,4545 7825,4556 7827,4556L7845,4556L7856,4551L7863,4544L7866,4538L7866,4530L7757,4483C7757,4483 7743,4472 7743,4471L7743,4460L7758,4450L7759,4432C7757,4415 7731,4241 7717,4145C7690,4126 7638,4089 7637,4088C7636,4088 7522,4023 7522,4023C7522,4023 7567,3911 7568,3910C7568,3909 7576,3895 7576,3895L7580,3891C7580,3891 7582,3891 7583,3891L7589,3895C7589,3895 7596,3908 7596,3909L7632,3957L7668,3988L7689,3998C7689,3998 7699,3998 7700,3998C7700,3998 7808,3958 7808,3957C7809,3957 7874,3923 7874,3923C7875,3922 7885,3915 7886,3914C7886,3914 7921,3894 7922,3894C7922,3894 7978,3896 7979,3896L7988,3892C7988,3892 7993,3887 7993,3886L7996,3871C7996,3870 7996,3853 7996,3852L7993,3843C7993,3843 7978,3829 7977,3829L7966,3822L7947,3822C7947,3822 7920,3833 7917,3834L7733,3890L7674,3733C7674,3733 7658,3709 7657,3708C7656,3707 7606,3659 7606,3659L7605,3656L7609,3651L7667,3632C7667,3632 7671,3564 7671,3563L7657,3533C7657,3533 7665,3497 7665,3496L7658,3464C7658,3464 7647,3454 7647,3453C7647,3453 7637,3449 7632,3446C7596,3432 7560,3432 7524,3446C7517,3449 7504,3456 7503,3456C7503,3456 7481,3471 7480,3471L7454,3496L7446,3513L7443,3531L7446,3549C7446,3549 7458,3571 7458,3572C7458,3573 7476,3594 7477,3594L7482,3608C7482,3609 7482,3622 7482,3622C7482,3622 7338,3618 7337,3618C7336,3618 7260,3626 7259,3626C7258,3626 7215,3636 7214,3637C7213,3637 7182,3648 7180,3648C7179,3648 7148,3662 7148,3662C7148,3662 7139,3668 7139,3669L7136,3674L7136,3680L7323,3680C7329,3681 7340,3683 7340,3683L7344,3685L7346,3687L7346,3690C7346,3690 7342,3693 7341,3695L7123,3697L7126,3699ZM7139,3833L7078,3898L7084,3900C7089,3902 7093,3901 7097,3900C7101,3898 7108,3892 7117,3883L7139,3860C7141,3858 7143,3856 7145,3853C7147,3851 7148,3849 7149,3848C7151,3845 7152,3842 7151,3840C7151,3838 7149,3836 7146,3835L7140,3833L7139,3833ZM7034,3906L7130,3805L7162,3816C7173,3820 7179,3825 7182,3831C7184,3837 7182,3845 7176,3855C7175,3857 7173,3860 7171,3863C7169,3866 7166,3869 7163,3872C7155,3882 7147,3890 7140,3896C7133,3903 7127,3908 7121,3913C7114,3918 7107,3921 7099,3923C7091,3924 7084,3923 7076,3921L7034,3906ZM7138,3943L7214,3862L7192,3854L7211,3834L7281,3859L7262,3879L7241,3872L7165,3953L7138,3944L7138,3943ZM7304,3891L7243,3956L7249,3958C7254,3960 7258,3960 7263,3958C7267,3956 7274,3950 7282,3941L7304,3918C7306,3916 7308,3914 7310,3911C7312,3909 7313,3907 7314,3906C7316,3903 7317,3900 7316,3898C7316,3896 7314,3894 7311,3893L7305,3891L7304,3891ZM7199,3964L7294,3863L7326,3874C7337,3878 7343,3883 7346,3889C7348,3895 7346,3903 7340,3913C7339,3915 7337,3918 7334,3921C7332,3924 7329,3927 7326,3930C7318,3940 7310,3948 7303,3954C7296,3961 7290,3966 7284,3971C7277,3976 7270,3979 7262,3981C7254,3982 7247,3981 7239,3979L7197,3964L7199,3964ZM7393,3983C7380,3997 7368,4007 7357,4011C7346,4015 7335,4015 7323,4011C7312,4007 7306,4002 7304,3995C7302,3988 7304,3980 7310,3971C7311,3969 7313,3967 7315,3964C7317,3961 7321,3958 7325,3953C7334,3942 7343,3934 7350,3927C7357,3920 7363,3915 7369,3911C7376,3905 7384,3902 7392,3901C7400,3900 7408,3901 7417,3904C7427,3908 7433,3913 7436,3919C7438,3926 7437,3933 7431,3942C7430,3944 7428,3946 7426,3949C7424,3951 7422,3954 7420,3957L7395,3948C7397,3945 7400,3943 7401,3941C7403,3939 7404,3937 7405,3936C7407,3933 7408,3931 7407,3928C7407,3926 7405,3925 7403,3924C7400,3923 7396,3923 7393,3925C7390,3927 7383,3933 7374,3942L7349,3968C7346,3972 7343,3975 7341,3977C7339,3979 7337,3981 7337,3983C7336,3985 7335,3987 7336,3989C7336,3991 7338,3992 7340,3993C7344,3994 7347,3994 7351,3992C7355,3990 7361,3984 7370,3975L7396,3984L7393,3983Z" style="fill:white;"/>
            <path d="M3387,3908L3359,3908C3353,3908 3348,3908 3341,3907C3332,3910 3325,3912 3321,3912L3228,3912L3226,3917L3319,3917C3323,3917 3328,3919 3335,3922C3341,3925 3346,3927 3349,3927L3380,3928L3364,3970L3348,3970C3342,3970 3336,3970 3330,3969C3321,3972 3314,3974 3310,3974L3217,3974L3215,3979L3307,3979C3311,3979 3316,3981 3323,3984C3329,3987 3334,3989 3336,3989L3356,3989L3342,4025L3317,4025C3311,4025 3306,4024 3299,4024C3290,4027 3283,4029 3279,4029L3186,4029L3184,4034L3277,4034C3281,4034 3286,4036 3293,4039C3299,4042 3304,4044 3307,4044L3335,4045L3320,4084L3301,4084C3295,4084 3290,4084 3283,4083C3274,4086 3267,4088 3263,4088L3170,4088L3168,4093L3261,4093C3265,4093 3270,4095 3277,4098C3283,4101 3288,4103 3291,4103L3313,4104L3297,4147L3269,4147C3263,4147 3258,4147 3251,4146C3242,4149 3235,4151 3231,4151L3138,4151L3136,4156L3229,4156C3233,4156 3238,4158 3245,4161C3251,4164 3256,4166 3259,4166L3290,4167L3275,4206L3244,4206C3238,4206 3232,4205 3226,4205C3217,4208 3210,4210 3205,4210L3112,4210L3110,4215L3202,4215C3206,4215 3211,4217 3218,4220C3224,4223 3229,4225 3231,4225L3265,4226L3251,4263L3223,4263C3217,4263 3212,4262 3205,4262C3196,4265 3189,4267 3185,4267L3092,4267L3090,4272L3183,4272C3187,4272 3192,4274 3199,4277C3205,4280 3210,4282 3213,4282L3244,4283L3230,4320L3196,4320C3190,4320 3185,4320 3178,4319C3169,4322 3162,4324 3158,4324L3065,4324L3063,4329L3156,4329C3160,4329 3165,4331 3172,4334C3178,4337 3183,4339 3186,4339L3223,4340L3207,4382L3168,4382C3162,4382 3156,4381 3150,4381C3141,4384 3134,4386 3130,4386L3037,4386L3035,4391L3127,4391C3131,4391 3136,4393 3143,4396C3149,4399 3154,4401 3156,4401L3198,4402L3182,4444L3150,4444C3144,4444 3138,4443 3132,4443C3123,4446 3116,4448 3112,4448L3019,4448L3017,4453L3109,4453C3113,4453 3118,4455 3125,4458C3131,4461 3136,4463 3138,4463L3173,4464L3161,4497L3137,4498C3131,4498 3126,4498 3119,4497C3110,4500 3103,4502 3099,4502L3006,4502L3004,4507L3096,4507C3100,4507 3105,4509 3112,4512C3118,4515 3123,4517 3126,4517L3154,4517L3154,4518L3533,4518C3679,4518 3798,4489 3886,4430C3974,4372 4028,4287 4049,4176C4056,4139 4057,4104 4050,4072C4043,4041 4030,4014 4013,3991C3985,3958 3949,3934 3906,3919C3863,3906 3801,3898 3718,3898L3391,3898L3387,3908ZM3762,4086C3757,4086 3752,4086 3747,4085C3738,4088 3731,4090 3727,4090L3626,4090L3624,4095L3724,4095C3728,4095 3733,4097 3740,4100C3746,4103 3751,4105 3754,4105L3777,4106C3782,4116 3784,4128 3785,4142L3774,4142C3768,4142 3762,4142 3756,4141C3747,4144 3740,4146 3735,4146L3635,4146L3633,4151L3733,4151C3737,4151 3742,4153 3749,4156C3755,4159 3760,4161 3762,4161L3783,4161C3782,4169 3781,4177 3780,4185C3779,4190 3778,4196 3776,4201C3772,4201 3768,4201 3764,4201C3755,4204 3748,4206 3744,4206L3643,4206L3641,4211L3741,4211C3745,4211 3750,4213 3757,4216C3762,4219 3767,4221 3769,4221C3763,4239 3754,4256 3744,4273L3727,4273C3721,4273 3715,4273 3709,4273C3700,4276 3693,4278 3688,4278L3588,4278L3586,4283L3686,4283C3690,4283 3695,4285 3702,4288C3708,4291 3713,4293 3715,4293L3730,4293C3719,4307 3708,4319 3697,4329L3666,4329C3660,4329 3655,4329 3648,4328C3639,4331 3632,4333 3628,4333L3527,4333L3525,4338L3625,4338C3629,4338 3634,4340 3641,4343C3647,4346 3652,4348 3654,4348L3664,4348C3650,4355 3635,4360 3620,4363C3597,4368 3566,4370 3525,4370L3464,4370L3583,4054L3642,4054C3698,4054 3737,4063 3757,4081L3762,4086Z" style="fill:white;"/>
            <path d="M4219,4508L4210,4508C4204,4508 4198,4508 4192,4507C4183,4510 4176,4512 4171,4512L4078,4512L4076,4517L4168,4517C4172,4517 4177,4519 4184,4522C4190,4525 4195,4527 4197,4527L4209,4527L4209,4528L4455,4528L4635,4066L4809,4066L4864,3908L4254,3908L4244,3908C4238,3908 4233,3908 4226,3907C4217,3910 4210,3912 4206,3912L4113,3912L4111,3917L4204,3917C4208,3917 4213,3919 4220,3922C4226,3925 4231,3927 4234,3927L4248,3927L4233,3970L4232,3970C4226,3970 4220,3970 4214,3969C4205,3972 4198,3974 4194,3974L4101,3974L4099,3979L4191,3979C4195,3979 4200,3981 4207,3984C4213,3987 4218,3989 4220,3989L4226,3989L4214,4025L4202,4025C4196,4025 4191,4024 4184,4024C4175,4027 4168,4029 4164,4029L4071,4029L4069,4034L4162,4034C4166,4034 4171,4036 4178,4039C4184,4042 4189,4044 4192,4044L4208,4044L4202,4062L4392,4062L4383,4083L4377,4083C4371,4083 4365,4083 4359,4082C4350,4085 4343,4087 4338,4087L4245,4087L4243,4092L4335,4092C4339,4092 4344,4094 4351,4097C4357,4100 4362,4102 4364,4102L4374,4102L4357,4145L4342,4145C4336,4145 4330,4145 4324,4144C4315,4147 4308,4149 4303,4149L4210,4149L4208,4154L4300,4154C4304,4154 4309,4156 4316,4159C4322,4162 4327,4164 4329,4164L4348,4164L4333,4203L4315,4203C4309,4203 4303,4202 4297,4202C4288,4205 4281,4207 4277,4207L4184,4207L4182,4212L4274,4212C4278,4212 4283,4214 4290,4217C4296,4220 4301,4222 4303,4222L4325,4222L4310,4259L4296,4259C4290,4259 4284,4258 4278,4258C4269,4261 4262,4263 4257,4263L4164,4263L4162,4268L4254,4268C4258,4268 4263,4270 4270,4273C4276,4276 4281,4278 4283,4278L4301,4278L4286,4316L4266,4316C4260,4316 4255,4316 4248,4315C4239,4318 4232,4320 4228,4320L4135,4320L4133,4325L4225,4325C4229,4325 4234,4327 4241,4330C4247,4333 4252,4335 4255,4335L4278,4336L4261,4379L4236,4379C4230,4379 4225,4378 4218,4378C4209,4381 4202,4383 4198,4383L4105,4383L4103,4388L4196,4388C4200,4388 4205,4390 4212,4393C4218,4396 4223,4398 4226,4398L4254,4399L4237,4441L4220,4441C4214,4441 4209,4440 4202,4440C4193,4443 4186,4445 4182,4445L4089,4445L4087,4450L4180,4450C4184,4450 4189,4452 4196,4455C4202,4458 4207,4460 4210,4460L4230,4461L4217,4495L4219,4508Z" style="fill:white;"/>
            <path d="M5121,3908L5093,3908C5087,3908 5082,3908 5075,3907C5066,3910 5059,3912 5055,3912L4962,3912L4960,3917L5053,3917C5057,3917 5062,3919 5069,3922C5075,3925 5080,3927 5083,3927L5114,3928L5098,3970L5081,3970C5075,3970 5070,3970 5063,3969C5054,3972 5047,3974 5043,3974L4950,3974L4948,3979L5041,3979C5045,3979 5050,3981 5057,3984C5063,3987 5068,3989 5071,3989L5091,3989L5077,4025L5052,4025C5046,4025 5040,4024 5034,4024C5025,4027 5018,4029 5013,4029L4920,4029L4918,4034L5010,4034C5014,4034 5019,4036 5026,4039C5032,4042 5037,4044 5039,4044L5067,4045L5052,4084L5033,4084C5027,4084 5021,4084 5015,4083C5006,4086 4999,4088 4994,4088L4901,4088L4899,4093L4991,4093C4995,4093 5000,4095 5007,4098C5013,4101 5018,4103 5020,4103L5042,4104L5026,4147L4998,4147C4992,4147 4986,4147 4980,4146C4971,4149 4964,4151 4959,4151L4866,4151L4864,4156L4956,4156C4960,4156 4965,4158 4972,4161C4978,4164 4983,4166 4985,4166L5016,4167L5001,4206L4970,4206C4964,4206 4958,4205 4952,4205C4943,4208 4936,4210 4932,4210L4839,4210L4837,4215L4929,4215C4933,4215 4938,4217 4945,4220C4951,4223 4956,4225 4958,4225L4992,4226L4978,4263L4950,4263C4944,4263 4938,4262 4932,4262C4923,4265 4916,4267 4912,4267L4819,4267L4817,4272L4909,4272C4913,4272 4918,4274 4925,4277C4931,4280 4936,4282 4939,4282L4970,4283L4956,4320L4922,4320C4916,4320 4911,4320 4904,4319C4895,4322 4888,4324 4884,4324L4791,4324L4789,4329L4881,4329C4885,4329 4890,4331 4897,4334C4903,4337 4908,4339 4911,4339L4948,4340L4932,4382L4893,4382C4887,4382 4882,4381 4875,4381C4866,4384 4859,4386 4855,4386L4762,4386L4760,4391L4853,4391C4857,4391 4862,4393 4869,4396C4875,4399 4880,4401 4883,4401L4925,4402L4909,4444L4877,4444C4871,4444 4866,4443 4859,4443C4850,4446 4843,4448 4839,4448L4746,4448L4744,4453L4837,4453C4841,4453 4846,4455 4853,4458C4859,4461 4864,4463 4867,4463L4902,4464L4890,4497L4866,4498C4860,4498 4854,4498 4848,4497C4839,4500 4832,4502 4827,4502L4734,4502L4732,4507L4824,4507C4828,4507 4833,4509 4840,4512C4846,4515 4851,4517 4853,4517L4881,4517L4881,4518L5260,4518C5406,4518 5525,4489 5613,4430C5701,4372 5755,4287 5776,4176C5783,4139 5784,4104 5777,4072C5770,4041 5758,4014 5740,3991C5712,3958 5676,3934 5633,3919C5590,3906 5528,3898 5445,3898L5118,3898L5121,3908ZM5496,4086C5491,4086 5487,4086 5482,4085C5473,4088 5466,4090 5462,4090L5361,4090L5359,4095L5459,4095C5463,4095 5468,4097 5475,4100C5481,4103 5486,4105 5489,4105L5512,4106C5517,4116 5519,4128 5520,4142L5509,4142C5503,4142 5498,4142 5491,4141C5482,4144 5475,4146 5471,4146L5370,4146L5368,4151L5468,4151C5472,4151 5477,4153 5484,4156C5490,4159 5495,4161 5497,4161L5518,4161C5518,4169 5517,4177 5515,4185C5514,4190 5513,4196 5511,4201C5507,4201 5503,4201 5499,4201C5490,4204 5483,4206 5478,4206L5378,4206L5376,4211L5476,4211C5480,4211 5485,4213 5492,4216C5497,4219 5502,4221 5504,4221C5498,4239 5489,4256 5479,4273L5461,4273C5455,4273 5450,4273 5443,4273C5434,4276 5427,4278 5423,4278L5322,4278L5320,4283L5420,4283C5424,4283 5429,4285 5436,4288C5442,4291 5447,4293 5449,4293L5464,4293C5453,4307 5442,4319 5431,4329L5400,4329C5394,4329 5389,4329 5382,4328C5373,4331 5366,4333 5362,4333L5261,4333L5259,4338L5359,4338C5363,4338 5368,4340 5375,4343C5381,4346 5386,4348 5389,4348L5399,4348C5385,4355 5370,4360 5355,4363C5332,4368 5301,4370 5260,4370L5199,4370L5318,4054L5377,4054C5433,4054 5472,4063 5492,4081L5496,4086Z" style="fill:white;"/>
            <path d="M6144,4511C6140,4512 6137,4513 6135,4513L6042,4513L6040,4518L6132,4518C6136,4518 6141,4520 6148,4523C6154,4526 6159,4528 6161,4528L6185,4528C6224,4540 6270,4547 6321,4547C6415,4547 6496,4524 6565,4479C6634,4434 6683,4373 6712,4293L6494,4293C6477,4325 6455,4349 6429,4366C6401,4384 6373,4392 6339,4392C6301,4392 6274,4381 6259,4359C6242,4337 6238,4304 6245,4260C6255,4195 6279,4144 6315,4105C6352,4065 6395,4046 6445,4046C6478,4046 6504,4055 6521,4072C6537,4090 6542,4115 6539,4146L6751,4147C6757,4064 6738,4001 6690,3957C6642,3914 6569,3893 6472,3893C6442,3893 6413,3895 6385,3900L6240,3900C6234,3900 6229,3900 6222,3899C6213,3902 6206,3904 6202,3904L6109,3904L6107,3909L6200,3909C6204,3909 6209,3911 6216,3914C6222,3917 6227,3919 6230,3919L6300,3921C6269,3932 6241,3947 6214,3964L6113,3964C6107,3964 6101,3964 6095,3963C6086,3966 6079,3968 6075,3968L5982,3968L5980,3973L6072,3973C6076,3973 6081,3975 6088,3978C6094,3981 6099,3983 6101,3983L6182,3985C6177,3989 6171,3994 6166,3998C6157,4006 6148,4015 6139,4024L6043,4024C6037,4024 6032,4024 6025,4023C6016,4026 6009,4028 6005,4028L5912,4028L5910,4033L6003,4033C6007,4033 6012,4035 6019,4038C6025,4041 6030,4043 6033,4043L6120,4045C6109,4058 6099,4071 6090,4085L6015,4085C6009,4085 6004,4085 5997,4084C5988,4087 5981,4089 5977,4089L5884,4089L5882,4094L5975,4094C5979,4094 5984,4096 5991,4099C5997,4102 6002,4104 6005,4104L6077,4106C6076,4107 6075,4109 6075,4110C6068,4122 6062,4134 6056,4147L5985,4147C5979,4147 5974,4147 5967,4146C5958,4149 5951,4151 5947,4151L5854,4151L5852,4156L5945,4156C5949,4156 5954,4158 5961,4161C5967,4164 5972,4166 5975,4166L6048,4168C6043,4180 6039,4193 6036,4206L5971,4206C5965,4206 5960,4205 5953,4205C5944,4208 5937,4210 5933,4210L5840,4210L5838,4215L5931,4215C5935,4215 5940,4217 5947,4220C5953,4223 5958,4225 5961,4225L6032,4227C6031,4232 6030,4237 6029,4242C6028,4249 6027,4256 6026,4263L5967,4263C5961,4263 5955,4262 5949,4262C5940,4265 5933,4267 5928,4267L5835,4267L5833,4272L5925,4272C5929,4272 5934,4274 5941,4277C5947,4280 5952,4282 5954,4282L6023,4284C6023,4296 6023,4308 6023,4320L5975,4320C5969,4320 5964,4320 5957,4319C5948,4322 5941,4324 5937,4324L5844,4324L5842,4329L5935,4329C5939,4329 5944,4331 5951,4334C5957,4337 5962,4339 5965,4339L6026,4341C6028,4355 6032,4369 6037,4383L6007,4383C6001,4383 5996,4382 5989,4382C5980,4385 5973,4387 5969,4387L5876,4387L5874,4392L5967,4392C5971,4392 5976,4394 5983,4397C5989,4400 5994,4402 5997,4402L6047,4403C6054,4418 6064,4432 6075,4445L6049,4445C6043,4445 6037,4444 6031,4444C6022,4447 6015,4449 6010,4449L5917,4449L5915,4454L6007,4454C6011,4454 6016,4456 6023,4459C6029,4462 6034,4464 6036,4464L6094,4466C6110,4480 6128,4492 6148,4502L6144,4511Z" style="fill:white;"/>
            <path d="M3209,4930L3270,4956C3266,4980 3259,5000 3250,5016C3241,5032 3230,5044 3217,5052C3204,5060 3187,5064 3167,5064C3142,5064 3122,5059 3107,5049C3091,5039 3078,5022 3067,4997C3056,4972 3050,4940 3050,4901C3050,4849 3060,4809 3080,4781C3100,4753 3128,4739 3165,4739C3193,4739 3216,4747 3232,4763C3248,4779 3260,4804 3268,4837L3206,4856C3204,4846 3202,4839 3199,4835C3195,4828 3190,4822 3185,4818C3179,4814 3173,4812 3166,4812C3150,4812 3138,4821 3130,4839C3124,4852 3120,4873 3120,4901C3120,4936 3124,4960 3131,4973C3139,4986 3149,4992 3163,4992C3176,4992 3186,4987 3193,4976C3200,4966 3205,4951 3208,4931L3209,4930ZM3296,4902C3296,4851 3306,4811 3327,4782C3348,4753 3376,4739 3413,4739C3451,4739 3480,4753 3500,4781C3520,4809 3531,4848 3531,4899C3531,4936 3527,4966 3518,4989C3509,5012 3496,5031 3479,5044C3462,5057 3441,5064 3416,5064C3391,5064 3369,5058 3353,5047C3336,5036 3323,5018 3312,4993C3301,4969 3296,4938 3296,4901L3296,4902ZM3366,4902C3366,4934 3370,4956 3379,4970C3388,4984 3399,4991 3414,4991C3429,4991 3441,4984 3449,4970C3457,4957 3461,4932 3461,4897C3461,4867 3457,4846 3448,4832C3439,4818 3428,4811 3413,4811C3399,4811 3388,4818 3379,4832C3370,4846 3366,4869 3366,4901L3366,4902ZM3716,4744L3786,4744L3786,4931C3786,4950 3784,4967 3780,4984C3776,5000 3769,5015 3760,5027C3751,5039 3742,5048 3732,5053C3719,5060 3702,5064 3683,5064C3672,5064 3660,5063 3647,5061C3634,5059 3623,5055 3615,5048C3606,5042 3598,5033 3591,5021C3584,5009 3579,4997 3576,4985C3572,4965 3570,4947 3570,4932L3570,4745L3640,4745L3640,4937C3640,4954 3643,4968 3650,4977C3657,4987 3666,4991 3679,4991C3691,4991 3700,4986 3708,4977C3715,4967 3718,4954 3718,4937L3718,4745L3716,4744ZM3833,5058L3833,4744L3949,4744C3971,4744 3987,4747 3999,4752C4010,4757 4020,4767 4026,4781C4033,4795 4037,4812 4037,4832C4037,4850 4034,4864 4029,4877C4024,4889 4016,4900 4007,4908C4001,4913 3993,4917 3983,4920C3991,4924 3997,4928 4001,4931C4004,4934 4007,4939 4012,4948C4017,4956 4020,4963 4022,4967L4056,5058L3977,5058L3940,4962C3935,4950 3931,4941 3927,4938C3922,4933 3916,4931 3910,4931L3904,4931L3904,5059L3834,5059L3833,5058ZM3903,4871L3932,4871C3935,4871 3941,4870 3951,4867C3956,4866 3959,4862 3962,4857C3965,4852 3966,4846 3966,4839C3966,4829 3964,4821 3959,4816C3955,4811 3946,4808 3933,4808L3903,4808L3903,4872L3903,4871ZM4080,4744L4150,4744L4150,5058L4080,5058L4080,4744ZM4200,4744L4387,4744L4387,4811L4270,4811L4270,4861L4378,4861L4378,4925L4270,4925L4270,4987L4390,4987L4390,5058L4199,5058L4199,4744L4200,4744ZM4429,5058L4429,4744L4545,4744C4567,4744 4583,4747 4594,4752C4605,4757 4615,4767 4622,4781C4629,4795 4633,4812 4633,4832C4633,4850 4630,4864 4625,4877C4620,4889 4612,4900 4603,4908C4597,4913 4589,4917 4579,4920C4587,4924 4593,4928 4597,4931C4599,4934 4603,4939 4608,4948C4613,4956 4616,4963 4618,4967L4652,5058L4573,5058L4536,4962C4531,4950 4527,4941 4523,4938C4518,4933 4512,4931 4506,4931L4500,4931L4500,5059L4430,5059L4429,5058ZM4499,4871L4528,4871C4531,4871 4537,4870 4546,4867C4551,4866 4555,4862 4557,4857C4560,4852 4561,4846 4561,4839C4561,4829 4559,4821 4554,4816C4549,4811 4541,4808 4528,4808L4497,4808L4497,4872L4499,4871ZM4958,4905L5007,4920C5004,4932 5002,4942 5000,4950C4998,4958 4994,4967 4990,4977L5013,4999C5016,5001 5020,5005 5024,5008L4990,5062C4984,5057 4978,5052 4971,5046C4964,5040 4959,5035 4953,5031C4942,5041 4931,5048 4920,5053C4905,5059 4888,5063 4868,5063C4838,5063 4815,5054 4801,5037C4786,5020 4779,4998 4779,4974C4779,4956 4783,4939 4792,4923C4801,4907 4815,4894 4835,4883C4827,4869 4821,4857 4818,4847C4815,4837 4813,4826 4813,4816C4813,4794 4819,4775 4831,4761C4843,4747 4862,4739 4887,4739C4912,4739 4931,4746 4943,4760C4955,4774 4961,4790 4961,4809C4961,4820 4959,4830 4955,4840C4951,4850 4947,4858 4942,4864C4937,4870 4928,4879 4914,4891C4925,4906 4937,4921 4949,4934C4952,4925 4955,4916 4957,4906L4958,4905ZM4885,4850C4893,4844 4899,4837 4904,4830C4908,4823 4911,4816 4911,4809C4911,4802 4909,4797 4905,4792C4901,4787 4896,4785 4890,4785C4884,4785 4879,4787 4874,4793C4870,4798 4868,4804 4868,4811C4868,4820 4874,4833 4885,4850ZM4863,4926C4854,4934 4849,4941 4846,4948C4843,4954 4842,4960 4842,4967C4842,4977 4845,4987 4852,4995C4858,5003 4867,5007 4877,5007C4888,5007 4901,5001 4915,4989C4902,4975 4884,4954 4863,4927L4863,4926ZM5316,4929L5377,4955C5373,4979 5366,4999 5357,5015C5348,5031 5337,5043 5324,5051C5311,5059 5294,5063 5274,5063C5249,5063 5229,5058 5214,5048C5199,5038 5185,5021 5174,4996C5163,4971 5157,4939 5157,4900C5157,4848 5167,4808 5187,4780C5207,4752 5235,4738 5271,4738C5300,4738 5322,4746 5338,4762C5354,4778 5366,4803 5374,4836L5312,4855C5310,4845 5308,4838 5305,4834C5301,4827 5296,4821 5291,4817C5285,4813 5279,4811 5272,4811C5256,4811 5244,4820 5236,4838C5230,4851 5226,4872 5226,4900C5226,4935 5230,4959 5237,4972C5245,4985 5255,4991 5269,4991C5282,4991 5292,4986 5299,4975C5306,4965 5311,4950 5314,4930L5316,4929ZM5550,5005L5471,5005L5460,5057L5389,5057L5474,4743L5550,4743L5635,5057L5562,5057L5551,5005L5550,5005ZM5535,4937L5510,4825L5485,4937L5535,4937ZM5658,5057L5658,4743L5774,4743C5796,4743 5812,4746 5824,4751C5835,4756 5845,4766 5852,4780C5859,4794 5863,4811 5863,4831C5863,4849 5860,4863 5855,4876C5850,4888 5842,4899 5833,4907C5827,4912 5819,4916 5809,4919C5817,4923 5823,4927 5827,4930C5830,4933 5833,4938 5838,4947C5843,4955 5846,4962 5848,4966L5882,5057L5803,5057L5766,4961C5761,4949 5757,4940 5754,4937C5749,4932 5743,4930 5737,4930L5731,4930L5731,5058L5661,5058L5658,5057ZM5728,4870L5757,4870C5760,4870 5766,4869 5775,4866C5780,4865 5783,4861 5786,4856C5789,4851 5790,4845 5790,4838C5790,4828 5788,4820 5783,4815C5778,4810 5770,4807 5757,4807L5726,4807L5726,4871L5728,4870ZM6011,4943L6011,4878L6119,4878L6119,5012C6098,5032 6080,5045 6064,5052C6048,5059 6029,5063 6008,5063C5981,5063 5959,5057 5942,5044C5925,5031 5912,5012 5903,4987C5894,4962 5889,4933 5889,4901C5889,4867 5894,4837 5904,4812C5914,4787 5929,4768 5949,4754C5964,4744 5985,4739 6011,4739C6036,4739 6055,4742 6067,4749C6079,4755 6090,4765 6098,4778C6106,4791 6112,4808 6116,4828L6049,4845C6046,4833 6041,4824 6035,4818C6028,4812 6020,4809 6010,4809C5995,4809 5983,4816 5973,4831C5964,4846 5959,4869 5959,4901C5959,4935 5964,4959 5973,4974C5982,4989 5995,4996 6012,4996C6020,4996 6027,4995 6034,4991C6041,4988 6049,4983 6058,4975L6058,4945L6011,4945L6011,4943ZM6151,4900C6151,4849 6161,4809 6182,4780C6203,4751 6231,4737 6268,4737C6306,4737 6335,4751 6355,4779C6376,4807 6386,4846 6386,4897C6386,4934 6382,4964 6373,4987C6364,5010 6351,5029 6334,5042C6317,5055 6296,5062 6271,5062C6245,5062 6224,5056 6207,5045C6190,5034 6177,5016 6166,4991C6155,4967 6150,4936 6150,4899L6151,4900ZM6221,4900C6221,4932 6225,4954 6234,4968C6243,4982 6254,4989 6269,4989C6284,4989 6296,4982 6304,4968C6312,4955 6316,4930 6316,4895C6316,4865 6312,4844 6303,4830C6294,4816 6283,4809 6268,4809C6254,4809 6242,4816 6234,4830C6225,4844 6221,4867 6221,4899L6221,4900ZM6528,4742L6598,4742L6598,4978L6707,4978L6707,5055L6528,5055L6528,4741L6528,4742ZM6742,4742L6812,4742L6812,5056L6742,5056L6742,4742ZM6861,4742L6953,4742L6988,4933L7023,4742L7115,4742L7115,5056L7058,5056L7058,4817L7014,5056L6962,5056L6918,4817L6918,5056L6861,5056L6861,4742ZM7163,4742L7233,4742L7233,5056L7163,5056L7163,4742ZM7267,4742L7480,4742L7480,4820L7408,4820L7408,5056L7338,5056L7338,4820L7266,4820L7266,4742L7267,4742ZM7511,4742L7698,4742L7698,4809L7581,4809L7581,4859L7690,4859L7690,4923L7581,4923L7581,4985L7702,4985L7702,5056L7511,5056L7511,4742ZM7740,4742L7844,4742C7865,4742 7881,4746 7894,4754C7906,4762 7917,4773 7925,4787C7933,4801 7939,4818 7943,4837C7947,4856 7949,4876 7949,4898C7949,4931 7946,4957 7941,4976C7935,4994 7928,5010 7918,5022C7908,5034 7898,5043 7886,5047C7871,5053 7857,5056 7844,5056L7740,5056L7740,4742ZM7810,4813L7810,4984L7827,4984C7842,4984 7852,4982 7858,4977C7864,4972 7869,4965 7873,4953C7876,4942 7878,4924 7878,4899C7878,4866 7874,4843 7866,4831C7858,4819 7845,4813 7827,4813L7810,4813Z" style="fill:white;"/>
        </g>
    </g>
</svg>
