<?xml version="1.0" encoding="UTF-8" standalone="no"?><!DOCTYPE svg PUBLIC "-//W3C//DTD SVG 1.1//EN" "http://www.w3.org/Graphics/SVG/1.1/DTD/svg11.dtd"><svg width="100%" height="100%" viewBox="0 0 150 50" version="1.1" xmlns="http://www.w3.org/2000/svg" xmlns:xlink="http://www.w3.org/1999/xlink" xml:space="preserve" style="fill-rule:evenodd;clip-rule:evenodd;stroke-linejoin:round;stroke-miterlimit:1.41421;"><path d="M90.024,19.345c-0.752,0.168 -1.378,0.691 -1.782,1.335c-0.617,0.975 -0.812,2.153 -0.84,3.29c0.019,1.171 0.232,2.386 0.892,3.378c0.506,0.764 1.375,1.343 2.317,1.304c0.952,0.063 1.868,-0.478 2.377,-1.267c0.838,-1.271 0.962,-2.863 0.838,-4.343c-0.128,-1.141 -0.524,-2.32 -1.394,-3.111c-0.642,-0.589 -1.572,-0.765 -2.408,-0.586m0.087,-2.523c1.66,-0.146 3.423,0.273 4.691,1.393c1.583,1.382 2.303,3.555 2.247,5.615c0.046,1.754 -0.383,3.573 -1.457,4.987c-0.956,1.297 -2.503,2.087 -4.09,2.26c-1.766,0.241 -3.693,-0.173 -5.023,-1.409c-1.554,-1.382 -2.234,-3.527 -2.206,-5.563c-0.041,-2.024 0.609,-4.139 2.078,-5.58c0.996,-0.998 2.362,-1.582 3.76,-1.703" style="fill:#fff;fill-rule:nonzero;"/><path d="M113.898,19.346c-0.752,0.17 -1.377,0.695 -1.779,1.34c-0.615,0.974 -0.808,2.149 -0.836,3.283c0.019,1.171 0.23,2.383 0.89,3.375c0.505,0.764 1.371,1.344 2.312,1.308c0.989,0.067 1.931,-0.514 2.435,-1.346c0.814,-1.301 0.918,-2.905 0.772,-4.395c-0.149,-1.125 -0.565,-2.286 -1.45,-3.04c-0.64,-0.546 -1.537,-0.697 -2.344,-0.525m0.088,-2.524c1.657,-0.146 3.418,0.271 4.688,1.385c1.591,1.382 2.314,3.561 2.256,5.628c0.046,1.752 -0.386,3.572 -1.459,4.985c-0.955,1.293 -2.499,2.083 -4.083,2.258c-1.767,0.24 -3.697,-0.173 -5.028,-1.41c-1.554,-1.38 -2.233,-3.526 -2.207,-5.56c-0.041,-2.023 0.608,-4.136 2.074,-5.579c0.995,-0.998 2.361,-1.585 3.759,-1.707" style="fill:#fff;fill-rule:nonzero;"/><path d="M137.855,16.936c1.617,-0.299 3.333,-0.126 4.841,0.543c-0.224,0.837 -0.47,1.668 -0.666,2.511c-1.05,-0.488 -2.235,-0.777 -3.393,-0.596c-0.601,0.095 -1.275,0.502 -1.315,1.17c-0.076,0.463 0.174,0.91 0.548,1.17c1.055,0.724 2.353,0.973 3.422,1.675c0.711,0.454 1.348,1.083 1.654,1.883c0.573,1.484 0.277,3.323 -0.891,4.442c-0.967,0.955 -2.357,1.323 -3.68,1.399c-1.466,0.061 -2.966,-0.184 -4.289,-0.835c0.197,-0.863 0.403,-1.725 0.61,-2.587c1.047,0.564 2.23,0.858 3.418,0.881c0.619,-0.039 1.319,-0.153 1.743,-0.655c0.429,-0.521 0.409,-1.365 -0.09,-1.833c-0.792,-0.768 -1.931,-0.935 -2.875,-1.441c-1.081,-0.538 -2.116,-1.384 -2.483,-2.578c-0.338,-1.159 -0.155,-2.494 0.583,-3.468c0.684,-0.912 1.758,-1.469 2.863,-1.681" style="fill:#fff;fill-rule:nonzero;"/><path d="M5.878,16.92c4.551,0.007 9.101,0.004 13.652,0.001c0.006,1.376 -0.01,2.752 0.007,4.129c-1.306,-0.001 -2.612,0.004 -3.918,-0.002c-0.006,3.322 -0.006,6.645 0,9.968c-1.894,0 -3.787,0.001 -5.68,0c0.026,-2.56 -0.013,-5.123 0.017,-7.683c-0.073,-0.766 0.085,-1.538 -0.035,-2.297c-1.348,0.035 -2.697,0.004 -4.047,0.015c0.01,-1.376 0.003,-2.754 0.004,-4.131" style="fill:#fff;fill-rule:nonzero;"/><path d="M23.452,16.957c1.898,-0.087 3.801,-0.014 5.703,-0.04c0.164,-0.021 0.273,0.047 0.325,0.203c1.812,4.633 3.596,9.278 5.427,13.904c-1.84,-0.019 -3.681,-0.014 -5.523,-0.002c-0.996,-2.782 -1.924,-5.588 -2.923,-8.37c-0.999,2.767 -1.919,5.566 -2.874,8.351c-1.825,0.025 -3.649,0.002 -5.474,0.011c1.792,-4.679 3.587,-9.362 5.339,-14.057" style="fill:#fff;fill-rule:nonzero;"/><path d="M33.601,16.919c3.864,0 7.728,0.005 11.59,0.005c0.679,0 1.36,-0.03 2.037,0.023c-0.013,1.369 -0.01,2.738 -0.002,4.107c-1.306,-0.012 -2.614,0 -3.922,-0.006c0.007,3.323 -0.005,6.647 0.007,9.969c-1.891,-0.001 -3.782,-0.007 -5.672,0.004c0.016,-3.324 -0.002,-6.647 0.01,-9.972c-1.351,0.003 -2.7,-0.005 -4.051,0.005c0.006,-1.378 0,-2.757 0.003,-4.135" style="fill:#fff;fill-rule:nonzero;"/><path d="M51.164,16.969c0.919,-0.116 1.849,-0.004 2.775,-0.047c1.067,0.026 2.14,-0.058 3.205,0.045c1.802,4.692 3.629,9.374 5.47,14.049c-1.848,0 -3.694,0.003 -5.541,-0.001c-0.889,-2.62 -1.812,-5.23 -2.709,-7.848c-0.059,-0.15 -0.092,-0.34 -0.276,-0.382c-0.897,2.752 -1.882,5.475 -2.787,8.225c-1.827,0.021 -3.652,-0.005 -5.478,0.013c1.791,-4.681 3.582,-9.362 5.341,-14.054" style="fill:#fff;fill-rule:nonzero;"/><path d="M125.962,19.413c0.02,1.267 -0.018,2.535 0.02,3.8c0.903,-0.034 1.884,0.119 2.695,-0.382c1.115,-0.624 1.184,-2.475 0.09,-3.152c-0.843,-0.502 -1.877,-0.342 -2.805,-0.266m-2.971,-2.138c1.463,-0.227 2.943,-0.307 4.424,-0.284c1.311,0.042 2.723,0.191 3.791,1.028c1.633,1.23 1.797,3.914 0.387,5.374c-0.391,0.432 -0.881,0.769 -1.425,0.978c0.719,0.355 1.254,1.009 1.524,1.758c0.567,1.572 0.758,3.256 1.351,4.821c-1.041,-0.034 -2.083,0.016 -3.123,-0.027c-0.391,-1.106 -0.655,-2.249 -0.913,-3.39c-0.157,-0.627 -0.343,-1.327 -0.888,-1.732c-0.626,-0.441 -1.432,-0.316 -2.153,-0.344c0.002,1.829 -0.004,3.657 0.004,5.485c-0.997,-0.005 -1.994,-0.005 -2.991,0c0.013,-4.555 -0.009,-9.111 0.012,-13.667" style="fill:#fff;fill-rule:nonzero;"/><path d="M68.699,17.057c1.347,0.014 2.694,0.001 4.039,0.008c0.866,3.171 1.861,6.314 2.432,9.558c0.131,-0.15 0.156,-0.35 0.198,-0.539c0.663,-3.058 1.631,-6.035 2.549,-9.023c1.322,0.005 2.644,0 3.966,0.003c0.196,4.606 0.488,9.207 0.687,13.813c-0.977,0.002 -1.953,0 -2.927,0c-0.076,-2.87 -0.265,-5.736 -0.299,-8.608c0.017,-0.792 -0.03,-1.584 -0.037,-2.378c-0.95,3.621 -2.09,7.189 -3.158,10.778l-2.357,0c-0.788,-3.097 -1.712,-6.162 -2.34,-9.298c-0.116,-0.5 -0.159,-1.019 -0.333,-1.505c-0.079,3.674 -0.301,7.342 -0.459,11.011c-0.933,0.002 -1.864,-0.001 -2.798,0.003c0.278,-4.609 0.589,-9.214 0.837,-13.823" style="fill:#fff;fill-rule:nonzero;"/><path d="M97.451,17.06c3.4,-0.002 6.799,0 10.198,0c-0.002,0.869 -0.011,1.738 0.006,2.608c-1.205,0.029 -2.408,0.004 -3.612,0.013c0.003,3.733 -0.004,7.465 0.004,11.197c-1.007,-0.008 -2.013,-0.002 -3.018,-0.004c0.002,-3.731 0,-7.462 0,-11.193c-1.19,0 -2.381,-0.002 -3.571,0.002c-0.007,-0.875 0.003,-1.749 -0.007,-2.623" style="fill:#fff;fill-rule:nonzero;"/></svg>